<?xml version="1.0" standalone="yes"?>
<svg xmlns="http://www.w3.org/2000/svg" width="340" height="340">
<path style="fill:#190e12; stroke:none;" d="M0 0L0 340L340 340L340 0L0 0z"/>
<path style="fill:#524549; stroke:none;" d="M84 104L87 103C90.1354 108.169 96.5686 111.697 101.272 115.463C110.764 123.063 119.691 131.413 128.996 139.245C134.522 143.897 139.441 149.493 147 150L147 149C136.094 146.89 126.985 134.355 119 127.169C97.4879 107.809 74.2489 89.6496 54.2461 68.7137C45.5361 59.5974 34.861 47.3283 45.5293 35.1852C56.6804 22.4926 68.8259 30.3309 79.0764 38.9753C101.896 58.2194 120.885 82.8852 142 104C149.769 111.769 161.78 120.16 165 131L166 131C164.663 123.619 159.076 119.133 154.015 114.004C142.905 102.745 131.415 83.8694 118 76L119 73L109 62L97 44C86.0477 41.0523 79.2953 27.5352 67 24.9738C48.7556 21.1729 31.0445 36.978 38.1289 56C46.6137 78.7826 69.2297 87.3504 84 104M252 57L248 58L247 58L248 62C244.238 63.9102 242.297 66.8209 242 71L241 72L239 71C237.476 76.6088 232.477 80.7449 228.845 85.1698C218.211 98.126 199.588 111.663 193 127L194 127C205.659 111.685 220.694 98.8741 233.961 85C246.526 71.8593 258.112 57.8672 271 45C280.21 35.8046 293.294 22.0498 306.996 31.652C319.928 40.7147 314.825 55.2884 305.896 65.0031C287.572 84.9401 265.362 101.133 246 120.015C236.507 129.273 224.781 144.919 212 149C216.38 150.197 219.928 146.842 223 143.958C230.053 137.336 237.3 131 244.579 124.625C264.863 106.862 289.012 94.5837 306.73 74C315.38 63.9508 322.318 51.6169 317.656 38C307.964 9.69513 274.034 31.0371 261.884 43.6111C258.065 47.5639 252.842 51.4086 252 57z"/>
<path style="fill:#6d6869; stroke:none;" d="M126 134C109.669 110.816 82.08 93.08 62 73C54.6502 65.6502 41.5552 56.7936 42.6389 45C43.8662 31.6428 59.8369 25.7705 70 33.419C95.9879 52.9768 113.492 83.3273 140 102C132.698 91.6341 122.046 83.0117 113.386 73.7145C100.296 59.6624 87.6821 43.5945 71.9853 32.3033C61.9873 25.1114 46.7094 27.6651 41.9946 40.0008C37.0819 52.8543 47.7318 63.0279 55.9198 71.2462C77.2364 92.6417 101.333 116.627 126 134M212 107C233.375 91.943 250.539 68.4602 269 50C277.78 41.2204 286.657 29.6848 300 29C290.069 24.8718 279.383 35.7881 273 42.0146C259.617 55.0695 247.635 69.3396 234.91 83C227.445 91.0149 218.318 98.0306 212 107z"/>
<path style="fill:#a29e9f; stroke:none;" d="M164 139L163 139C157.448 146.221 149.557 150.808 141 145.146C132.805 139.723 125.899 131.105 118.715 124.385C103.042 109.727 87.2135 95.1419 72 80.0008C63.3794 71.4212 50.5728 63.3099 45.4174 52C40.7032 41.6579 50.9364 29.1595 62 31.0988C69.541 32.4206 76.1712 40.4852 81.4244 45.5903C88.015 51.9951 94.5016 58.5016 101 65C112.823 76.8234 124.33 91.3704 138 101C129.06 88.3083 115.726 78.0277 105.039 66.7485C98.1445 59.4715 91.0475 52.3038 83.6998 45.4854C76.9624 39.2331 70.8144 30.5276 61 29.3658C47.1718 27.7288 38.5369 43.4429 44.4529 55C50.9194 67.6324 66.8686 79.0637 77.2855 88.5139C97.5686 106.915 116.706 127.479 138 144.66C147.095 151.998 158.981 149.453 164 139M209 112L210 112C221.327 98.3671 235.662 86.8062 247.961 74.0008C260.646 60.7932 273.93 44.016 289 33.6528C301.344 25.1641 318.748 39.347 311.438 53C305.383 64.3094 291.977 73.0241 283 82C268.401 96.5976 253.495 110.964 238.464 125.112C231.511 131.655 224.968 139.873 217 145.146C201.503 155.402 191.635 137.169 197 124C185.838 135.185 199.964 153.043 214 148.297C223.806 144.981 233.795 132.202 241 125C257.498 108.51 274.404 91.7097 292 76.4244C300.283 69.2292 312.919 59.6234 314.657 48C317.243 30.6974 296.511 25.5887 285.015 33.9383C265.964 47.7742 250.606 68.394 234 85C225.99 93.0104 213.815 101.675 209 112z"/>
<path style="fill:#6d6869; stroke:none;" d="M301 29L301 30L306 31L306 30L301 29z"/>
<path style="fill:#fbfafb; stroke:none;" d="M59 30.6134C44.3357 31.3988 40.6434 47.7432 48.5293 58C68.2424 83.64 97.6718 105.53 121.285 127.615C129.318 135.128 138.553 149.232 151 147.811C162.458 146.502 167.688 133.561 161.171 124.325C154.036 114.214 142.825 105.615 133.985 96.9606C118.837 82.1313 104.067 66.9154 89 52.0038C81.5307 44.6115 70.589 29.9927 59 30.6134M297 30.6134C285.128 31.2348 275.725 45.284 268 53C245.05 75.9218 217.397 97.8333 197.548 123.464C190.266 132.867 195.35 147.547 208 147.942C220.365 148.329 229.542 134.335 237.666 126.626C254.582 110.572 271.419 94.4138 288 78.0038C295.259 70.8196 304.358 64.4469 310.197 56C317.504 45.4286 310.719 29.8954 297 30.6134z"/>
<path style="fill:#6d6869; stroke:none;" d="M306.667 31.3333L307.333 31.6667L306.667 31.3333M308 32L309 33L308 32M309 33L310 34L309 33M310 34L311 35L310 34M311 35L312 36L311 35M312.333 36.6667L312.667 37.3333L312.333 36.6667M313.333 38.6667L313.667 39.3333L313.333 38.6667M314 40L314 43L315 43L314 40M314 49L314 52L315 52L314 49M313 52L310 59L313 52z"/>
<path style="fill:#524549; stroke:none;" d="M249 56L250 57L249 56z"/>
<path style="fill:#6d6869; stroke:none;" d="M309 59L276 92C285.852 88.4523 294.52 76.9451 302.039 69.8295C305.091 66.9408 309.6 63.5037 309 59M275 92L273 95L275 92M265 102L273 95L265 102z"/>
<path style="fill:#a29e9f; stroke:none;" d="M139 102L142 104L139 102z"/>
<path style="fill:#6d6869; stroke:none;" d="M264 102L265 103L264 102M263 103L262 105L264 105L263 103M142 104L143 105L142 104z"/>
<path style="fill:#a29e9f; stroke:none;" d="M142 105L144 107L144 105L142 105z"/>
<path style="fill:#6d6869; stroke:none;" d="M261 105L262 106L261 105M144 106L145 107L144 106M260 106L261 107L260 106z"/>
<path style="fill:#a29e9f; stroke:none;" d="M145 107L153 115L145 107z"/>
<path style="fill:#6d6869; stroke:none;" d="M259 107L260 108L259 107M146 108L147 109L146 108M210 108L211 109L210 108M258 108L259 109L258 108M147 109L148 110L147 109M256 109L256 111L258 109L256 109M207.667 111.333L208.333 111.667L207.667 111.333M255 111L256 112L255 111z"/>
<path style="fill:#a29e9f; stroke:none;" d="M207 112L200 120L207 112z"/>
<path style="fill:#6d6869; stroke:none;" d="M252 115L255 112L252 115M204 114L205 115L204 114z"/>
<path style="fill:#a29e9f; stroke:none;" d="M153 115L156 118L153 115z"/>
<path style="fill:#6d6869; stroke:none;" d="M250 115L251 116L250 115M202 116L203 117L202 116M249 116L250 117L249 116M248 117L249 118L248 117z"/>
<path style="fill:#a29e9f; stroke:none;" d="M156 118L159 121L156 118z"/>
<path style="fill:#6d6869; stroke:none;" d="M247 118L248 119L247 118M246 119L247 120L246 119M199 120L200 121L199 120M245 120L246 121L245 120z"/>
<path style="fill:#a29e9f; stroke:none;" d="M159 121L159 123L161 123L159 121M197 123L200 121L197 123z"/>
<path style="fill:#6d6869; stroke:none;" d="M244 121L245 122L244 121M243 122L244 123L243 122z"/>
<path style="fill:#a29e9f; stroke:none;" d="M161 123L163 128L164 128L161 123z"/>
<path style="fill:#6d6869; stroke:none;" d="M196 123L197 124L196 123M242 123L243 124L242 123M162 124L163 125L162 124M195 124L196 125L195 124M241 124L242 125L241 124M240 125L241 126L240 125M163 126L164 127L163 126M194 126L195 127L194 126M239 126L240 127L239 126M193.333 127.667L193.667 128.333L193.333 127.667M238 127L239 128L238 127M164 128L165 129L164 128M237 128L238 129L237 128z"/>
<path style="fill:#a29e9f; stroke:none;" d="M164 129L164 137L165 137L164 129z"/>
<path style="fill:#524549; stroke:none;" d="M192 129L192 132L193 132L192 129z"/>
<path style="fill:#6d6869; stroke:none;" d="M235 130L236 131L235 130M165 131L165 136L166 136L165 131M192 132L192 135L193 135L192 132z"/>
<path style="fill:#524549; stroke:none;" d="M191.333 133.667L191.667 134.333L191.333 133.667z"/>
<path style="fill:#6d6869; stroke:none;" d="M127 134L128 135L127 134M230 134L231 135L230 134M128 135L129 136L128 135z"/>
<path style="fill:#524549; stroke:none;" d="M192 135L192 138L193 138L192 135z"/>
<path style="fill:#6d6869; stroke:none;" d="M229 135L230 136L229 135M129 136L130 137L129 136z"/>
<path style="fill:#524549; stroke:none;" d="M165.333 136.667L165.667 137.333L165.333 136.667z"/>
<path style="fill:#6d6869; stroke:none;" d="M130 137L131 138L130 137M164.333 137.667L164.667 138.333L164.333 137.667M227 137L228 138L227 137M131 138L132 139L131 138M193 138L194 139L193 138M226 138L227 139L226 138M132 139L133 140L132 139z"/>
<path style="fill:#524549; stroke:none;" d="M164 139L163 142L164 139M193 139C195.058 145.051 199.619 149.147 206 150L206 149L193 139z"/>
<path style="fill:#6d6869; stroke:none;" d="M225 139L226 140L225 139M133 140L134 141L133 140M163 140L164 141L163 140M194 140L195 141L194 140M224 140L225 141L224 140M134 141L135 142L134 141M223 141L224 142L223 141M135 142L136 143L135 142M162 142L161 144L162 142M195 142L196 143L195 142M222 142L223 143L222 142M136 143L137 144L136 143z"/>
<path style="fill:#524549; stroke:none;" d="M162 143L163 144L162 143z"/>
<path style="fill:#6d6869; stroke:none;" d="M196 143L197 144L196 143M221 143L222 144L221 143M137 144L138 145L137 144z"/>
<path style="fill:#524549; stroke:none;" d="M161 144L162 145L161 144z"/>
<path style="fill:#6d6869; stroke:none;" d="M197 144L198 145L197 144M220 144L221 145L220 144M138 145L139 146L138 145z"/>
<path style="fill:#524549; stroke:none;" d="M160 145L161 146L160 145z"/>
<path style="fill:#6d6869; stroke:none;" d="M198 145L199 146L198 145M219 145L220 146L219 145M140 146L141 147L140 146M158 146L159 147L158 146z"/>
<path style="fill:#524549; stroke:none;" d="M159 146L160 147L159 146z"/>
<path style="fill:#6d6869; stroke:none;" d="M199 146L200 147L199 146M217 146L218 147L217 146M141 147L142 148L141 147M156 147L157 148L156 147z"/>
<path style="fill:#524549; stroke:none;" d="M157.667 147.333L158.333 147.667L157.667 147.333z"/>
<path style="fill:#6d6869; stroke:none;" d="M201 147L202 148L201 147M216 147L217 148L216 147M143.667 148.333L144.333 148.667L143.667 148.333M154 148L155 149L154 148z"/>
<path style="fill:#524549; stroke:none;" d="M155 148L156 149L155 148z"/>
<path style="fill:#6d6869; stroke:none;" d="M203 148L204 149L203 148M214 148L215 149L214 148M147 149L147 150L152 150L147 149z"/>
<path style="fill:#524549; stroke:none;" d="M152.667 149.333L153.333 149.667L152.667 149.333z"/>
<path style="fill:#6d6869; stroke:none;" d="M206 149L206 150L212 150L206 149z"/>
<path style="fill:#524549; stroke:none;" d="M207 150L207 151L211 151L207 150M145 176L145 177L153 177L145 176M205 176L205 177L209 177L205 176z"/>
<path style="fill:#6d6869; stroke:none;" d="M209 176L210 177L209 176z"/>
<path style="fill:#524549; stroke:none;" d="M210 176L210 177L213 177L210 176M83 304L102 287L116 261L120 255L119 252C126.794 247.476 137.479 232.365 141 224L140 224C132.831 232.99 123.901 240.505 116.171 248.996C102.221 264.317 89.6363 280.624 73.8843 294.236C63.6578 303.074 47.9096 300.908 42.2137 288C36.24 274.462 49.2412 263.092 58.0895 254.715C76.1469 237.617 95.2571 221.625 113.536 204.749C123.136 195.887 132.302 184.036 144 178C138.29 177.217 132.714 184.322 129 188C117.879 199.014 105.414 208.518 93.0895 218.112C73.4207 233.423 50.3098 242.199 38.3789 266C30.9487 280.822 34.049 299.957 51 306.714C62.7027 311.378 72.8444 301.997 83 304z"/>
<path style="fill:#6d6869; stroke:none;" d="M144 177L145 178L144 177z"/>
<path style="fill:#a29e9f; stroke:none;" d="M143 178L143 179L156 179L143 178z"/>
<path style="fill:#6d6869; stroke:none;" d="M154 177L155 178L154 177z"/>
<path style="fill:#524549; stroke:none;" d="M155 177L156 178L155 177M202 177L203 178L202 177z"/>
<path style="fill:#6d6869; stroke:none;" d="M203.667 177.333L204.333 177.667L203.667 177.333z"/>
<path style="fill:#a29e9f; stroke:none;" d="M194 188L195 188C199.741 179.821 205.896 177.316 215 179C207.04 173.562 196.777 179.836 194 188z"/>
<path style="fill:#6d6869; stroke:none;" d="M213 177L214 178L213 177z"/>
<path style="fill:#524549; stroke:none;" d="M214.667 177.333L215.333 177.667L214.667 177.333z"/>
<path style="fill:#6d6869; stroke:none;" d="M142 178L143 179L142 178z"/>
<path style="fill:#fbfafb; stroke:none;" d="M146 178.483C134.704 180.844 124.761 195.263 117 202.999C95.1169 224.81 67.3436 244.529 48.5293 269C39.4485 280.811 46.024 297.412 62 295.894C72.9389 294.855 82.7322 280.259 90 273C104.589 258.429 118.943 243.573 133.826 229.3C142.618 220.869 154.401 211.867 161.12 201.7C168.595 190.389 159.713 175.617 146 178.483z"/>
<path style="fill:#6d6869; stroke:none;" d="M156 178L157 179L156 178z"/>
<path style="fill:#524549; stroke:none;" d="M157 178L158 179L157 178M200 178L201 179L200 178z"/>
<path style="fill:#6d6869; stroke:none;" d="M201 178L202 179L201 178z"/>
<path style="fill:#fbfafb; stroke:none;" d="M205 178.533C194.339 181.111 191.126 193.711 197.38 201.996C206.246 213.744 218.631 223.594 228.999 234C243.301 248.354 256.663 263.663 271 278C279.314 286.314 289.578 299.707 302.999 295.146C312.371 291.96 316.421 279.059 310.566 271C302.991 260.573 291.653 251.442 282.289 242.616C266.612 227.839 251.378 212.607 235.826 197.7C227.619 189.832 218.143 175.355 205 178.533z"/>
<path style="fill:#6d6869; stroke:none;" d="M215 178L215 179L218 180L215 178z"/>
<path style="fill:#524549; stroke:none;" d="M217 178L218 179L217 178z"/>
<path style="fill:#6d6869; stroke:none;" d="M140 179L141 180L140 179z"/>
<path style="fill:#a29e9f; stroke:none;" d="M141 179L142 180L141 179M157 179L163 188L164 188L157 179z"/>
<path style="fill:#6d6869; stroke:none;" d="M158 179L159 180L158 179z"/>
<path style="fill:#524549; stroke:none;" d="M198.667 179.333L199.333 179.667L198.667 179.333z"/>
<path style="fill:#a29e9f; stroke:none;" d="M216 179L217 180L216 179z"/>
<path style="fill:#524549; stroke:none;" d="M218 179L219 180L218 179z"/>
<path style="fill:#a29e9f; stroke:none;" d="M138 182L141 180L138 182z"/>
<path style="fill:#6d6869; stroke:none;" d="M159 180L163 184L159 180z"/>
<path style="fill:#524549; stroke:none;" d="M160 180L161 181L160 180z"/>
<path style="fill:#6d6869; stroke:none;" d="M198 180L199 181L198 180z"/>
<path style="fill:#a29e9f; stroke:none;" d="M217 180L217 181L237 199C232.178 192.155 224.644 183.564 217 180z"/>
<path style="fill:#6d6869; stroke:none;" d="M219 180L220 181L219 180z"/>
<path style="fill:#524549; stroke:none;" d="M161 181L162 182L161 181M196 181L197 182L196 181z"/>
<path style="fill:#6d6869; stroke:none;" d="M197 181L198 182L197 181z"/>
<path style="fill:#524549; stroke:none;" d="M220.667 181.333L221.333 181.667L220.667 181.333z"/>
<path style="fill:#a29e9f; stroke:none;" d="M137 182L136 184L138 184L137 182z"/>
<path style="fill:#524549; stroke:none;" d="M162 182L163 183L162 182z"/>
<path style="fill:#6d6869; stroke:none;" d="M196 182L197 183L196 182M221 182L222 183L221 182z"/>
<path style="fill:#524549; stroke:none;" d="M195 183L196 184L195 183z"/>
<path style="fill:#6d6869; stroke:none;" d="M222 183L223 184L222 183M134 184L117 202C122.441 198.167 132.403 190.59 134 184z"/>
<path style="fill:#a29e9f; stroke:none;" d="M135 184L136 185L135 184z"/>
<path style="fill:#524549; stroke:none;" d="M163 184L164 185L163 184M194 184L195 185L194 184z"/>
<path style="fill:#6d6869; stroke:none;" d="M223 184L225 186L223 184z"/>
<path style="fill:#524549; stroke:none;" d="M224 184L225 185L224 184z"/>
<path style="fill:#a29e9f; stroke:none;" d="M134 185L135 186L134 185z"/>
<path style="fill:#6d6869; stroke:none;" d="M163 185L164 186L163 185M194 185L195 186L194 185z"/>
<path style="fill:#a29e9f; stroke:none;" d="M133 186L134 187L133 186z"/>
<path style="fill:#524549; stroke:none;" d="M164 186L165 187L164 186M193 186L194 187L193 186z"/>
<path style="fill:#6d6869; stroke:none;" d="M225 186L238 199L225 186z"/>
<path style="fill:#524549; stroke:none;" d="M226 186L227 187L226 186z"/>
<path style="fill:#a29e9f; stroke:none;" d="M132 187L133 188L132 187z"/>
<path style="fill:#6d6869; stroke:none;" d="M164.333 187.667L164.667 188.333L164.333 187.667M193.333 187.667L193.667 188.333L193.333 187.667z"/>
<path style="fill:#524549; stroke:none;" d="M227 187L228 188L227 187z"/>
<path style="fill:#a29e9f; stroke:none;" d="M131 188L132 189L131 188z"/>
<path style="fill:#524549; stroke:none;" d="M165 188L165 191L166 191L165 188M228 188L229 189L228 188z"/>
<path style="fill:#a29e9f; stroke:none;" d="M130 189L131 190L130 189M164 189L164 196L165 196L164 189z"/>
<path style="fill:#524549; stroke:none;" d="M192 189L192 196L193 196L192 189z"/>
<path style="fill:#a29e9f; stroke:none;" d="M193 189L193 196L194 196L193 189z"/>
<path style="fill:#524549; stroke:none;" d="M229 189L230 190L229 189z"/>
<path style="fill:#a29e9f; stroke:none;" d="M129 190L130 191L129 190z"/>
<path style="fill:#524549; stroke:none;" d="M230 190L231 191L230 190z"/>
<path style="fill:#a29e9f; stroke:none;" d="M128 191L129 192L128 191z"/>
<path style="fill:#6d6869; stroke:none;" d="M165 191L165 195L166 195L165 191z"/>
<path style="fill:#524549; stroke:none;" d="M231 191L232 192L231 191z"/>
<path style="fill:#a29e9f; stroke:none;" d="M127 192L128 193L127 192z"/>
<path style="fill:#524549; stroke:none;" d="M232 192L233 193L232 192z"/>
<path style="fill:#a29e9f; stroke:none;" d="M126 193L127 194L126 193z"/>
<path style="fill:#524549; stroke:none;" d="M233 193L234 194L233 193z"/>
<path style="fill:#a29e9f; stroke:none;" d="M125 194L126 195L125 194z"/>
<path style="fill:#524549; stroke:none;" d="M234 194L235 195L234 194z"/>
<path style="fill:#a29e9f; stroke:none;" d="M124 195L125 196L124 195z"/>
<path style="fill:#524549; stroke:none;" d="M165.333 195.667L165.667 196.333L165.333 195.667M235 195L236 196L235 195z"/>
<path style="fill:#a29e9f; stroke:none;" d="M123 196L124 197L123 196z"/>
<path style="fill:#6d6869; stroke:none;" d="M164.333 196.667L164.667 197.333L164.333 196.667M193.333 196.667L193.667 197.333L193.333 196.667z"/>
<path style="fill:#524549; stroke:none;" d="M236 196L237 197L236 196z"/>
<path style="fill:#a29e9f; stroke:none;" d="M122 197L123 198L122 197M163 197C158.604 206.976 147.183 215.999 139 223L139 224C145.637 220.905 164.843 205.019 163 197M194 197C198.019 209.587 212.908 219.869 221.999 229C242.768 249.861 261.562 277.711 286.015 294.401C300.274 304.134 317.918 291.502 314 275L313 275C312.997 297.849 294.345 299.739 279.961 285.907C250.412 257.49 221.431 227.409 194 197z"/>
<path style="fill:#524549; stroke:none;" d="M237 197C253.263 218.904 278.539 234.568 297.424 254.171C304.247 261.252 315.282 269.221 315.722 280C316.489 298.774 294.246 303.725 282 293.671C261.038 276.46 244.431 253.868 226.053 234.036C215.798 222.97 200.968 211.434 194 198L193 198C197.003 210.535 211.697 222.31 220.32 232.09C238.762 253.003 248.054 283.742 272.961 298.32C281.857 303.527 291.075 309.564 302 305.987C321.145 299.717 325.851 277.851 315.409 262C301.107 240.29 279.209 229.036 258.615 214.515C251.11 209.223 245.156 201.239 237 197z"/>
<path style="fill:#a29e9f; stroke:none;" d="M121 198L122 199L121 198z"/>
<path style="fill:#524549; stroke:none;" d="M164.333 198.667L164.667 199.333L164.333 198.667z"/>
<path style="fill:#a29e9f; stroke:none;" d="M120 199L121 200L120 199z"/>
<path style="fill:#6d6869; stroke:none;" d="M194 199L195 200L194 199z"/>
<path style="fill:#a29e9f; stroke:none;" d="M238 199L240 202L238 199M119 200L120 201L119 200z"/>
<path style="fill:#524549; stroke:none;" d="M163 200L164 201L163 200z"/>
<path style="fill:#a29e9f; stroke:none;" d="M118 201L119 202L118 201z"/>
<path style="fill:#6d6869; stroke:none;" d="M162 201L163 202L162 201M195 201L196 202L195 201M240.667 201.333L241.333 201.667L240.667 201.333z"/>
<path style="fill:#a29e9f; stroke:none;" d="M136 229L136 228C128.904 231.309 123.484 238.516 118 244L84 278C78.3563 283.644 71.8776 292.89 64 295.347C48.233 300.265 39.7707 281.392 48.5293 270C68.0385 244.625 99.5621 228.107 118 202C110.121 205.674 104.515 213.916 98 219.576C80.927 234.407 58.69 251.358 45.8032 270C37.6499 281.794 45.0452 298.288 60 297.945C70.6106 297.702 78.1234 287.906 84.9992 281C102.048 263.875 117.75 244.861 136 229z"/>
<path style="fill:#524549; stroke:none;" d="M162 202L163 203L162 202z"/>
<path style="fill:#6d6869; stroke:none;" d="M196 202L197 203L196 202z"/>
<path style="fill:#a29e9f; stroke:none;" d="M241 202L241 204L243 204L241 202z"/>
<path style="fill:#6d6869; stroke:none;" d="M114 203L115 204L114 203z"/>
<path style="fill:#524549; stroke:none;" d="M161 203L162 204L161 203M160 204L161 205L160 204z"/>
<path style="fill:#a29e9f; stroke:none;" d="M243 204L244 205L243 204z"/>
<path style="fill:#6d6869; stroke:none;" d="M112 205L113 206L112 205z"/>
<path style="fill:#524549; stroke:none;" d="M159 205L160 206L159 205z"/>
<path style="fill:#a29e9f; stroke:none;" d="M244 205L262 224L312 274L313 274C309.013 263.708 297.317 254.952 289.285 247.665C274.257 234.031 260.561 216.666 244 205z"/>
<path style="fill:#6d6869; stroke:none;" d="M111 206L112 207L111 206z"/>
<path style="fill:#524549; stroke:none;" d="M158 206L159 207L158 206z"/>
<path style="fill:#6d6869; stroke:none;" d="M246 206L247 207L246 206M110 207L111 208L110 207z"/>
<path style="fill:#524549; stroke:none;" d="M157 207L158 208L157 207z"/>
<path style="fill:#6d6869; stroke:none;" d="M247 207L248 208L247 207M109 208L110 209L109 208z"/>
<path style="fill:#524549; stroke:none;" d="M156 208L155 210L157 210L156 208z"/>
<path style="fill:#6d6869; stroke:none;" d="M248 208L249 209L248 208M108 209L109 210L108 209M202 209L203 210L202 209M249 209L250 210L249 209M107 210L108 211L107 210z"/>
<path style="fill:#524549; stroke:none;" d="M154 210L152 213L154 210z"/>
<path style="fill:#6d6869; stroke:none;" d="M250 210L251 211L250 210M106 211L107 212L106 211M204 211L205 212L204 211M251 211L252 212L251 211M105 212L106 213L105 212M252 212L253 213L252 212M104 213L105 214L104 213z"/>
<path style="fill:#524549; stroke:none;" d="M151 213L150 215L152 215L151 213z"/>
<path style="fill:#6d6869; stroke:none;" d="M253 213L254 214L253 213M102 214L102 216L104 214L102 214M207 214L208 215L207 214M254 214L255 215L254 214z"/>
<path style="fill:#524549; stroke:none;" d="M149 215L150 216L149 215z"/>
<path style="fill:#6d6869; stroke:none;" d="M255 215L256 216L255 215M97 220L102 216L97 220z"/>
<path style="fill:#524549; stroke:none;" d="M148 216L147 218L149 218L148 216z"/>
<path style="fill:#6d6869; stroke:none;" d="M209 216L210 217L209 216M256 216L257 217L256 216M210 217L211 218L210 217M257 217L258 218L257 217z"/>
<path style="fill:#524549; stroke:none;" d="M146 218L142 224L146 218z"/>
<path style="fill:#6d6869; stroke:none;" d="M211 218L212 219L211 218M258 218L259 219L258 218M145 219L146 220L145 219M212 219L213 220L212 219M259 219L260 220L259 219M96 220L97 221L96 220M213 220L214 221L213 220M260 220L262 222L262 220L260 220M95 221L96 222L95 221M214 221L215 222L214 221M94 222L95 223L94 222M215 222L216 223L215 222M262 222L263 223L262 222M93 223L94 224L93 223M141 223L142 224L141 223M216 223L217 224L216 223M263.667 223.333L264.333 223.667L263.667 223.333M92 224L93 225L92 224M139 224L140 225L139 224M217 224L218 225L217 224M265.333 224.667L265.667 225.333L265.333 224.667M91 225L92 226L91 225z"/>
<path style="fill:#a29e9f; stroke:none;" d="M136 227L139 225L136 227z"/>
<path style="fill:#6d6869; stroke:none;" d="M218 225L219 226L218 225M110 255C94.0698 266.223 83.6703 289.775 65 296.856C51.6312 301.926 37.9913 286.758 44.0502 274C53.4561 254.195 78.5399 243.64 91 226C82.419 229.978 75.1624 238.443 68 244.579C62.0545 249.674 56.4382 255.221 51.1304 260.975C46.0519 266.481 41.5514 271.235 40.5039 279C38.7719 291.839 50.8989 301.551 63 299.696C77.5315 297.469 89.6091 280.047 99 269.985C103.103 265.589 108.007 260.747 110 255M138 226L139 227L138 226M219 226L219 228L221 228L219 226M267 226L268 227L267 226M136.333 227.667L136.667 228.333L136.333 227.667M268 227L269 228L268 227M221 228L221 230L223 230L221 228M269 228L270 229L269 228M270 229L271 230L270 229M133.333 230.667L133.667 231.333L133.333 230.667M223 230L229 237L223 230M271 230L272 231L271 230M272 231L273 232L272 231M132 232L133 233L132 232M273 232L274 233L273 232M131 233L132 234L131 233M274 233L275 234L274 233M275 234L276 235L275 234M129 235L130 236L129 235M276 235L290 248C287.369 242.611 281.387 237.509 276 235M127 236L127 238L129 236L127 236M229 237L230 238L229 237M126 238L127 239L126 238M230 238L230 240L232 240L232 238L230 238M125 239L126 240L125 239M124 240L125 241L124 240M232 240C235.365 247.216 242.526 253.103 247.831 259C259.013 271.43 270.242 288.035 285 296.468C296.955 303.299 312.73 298.546 315 284L314 284C309.162 297.012 296.205 301.616 285.039 292.961C265.398 277.735 252.214 254.239 232 240M123 241L124 242L123 241M122 242L123 243L122 242M121 243L122 244L121 243M120 244L121 245L120 244M119 245L120 246L119 245M118 246L119 247L118 246M117 247L118 248L117 247M116 248L117 249L116 248M290 248L314 277L315 277C313.33 266.302 299.692 252.356 290 248M115 249L116 250L115 249M114 250L115 251L114 250M113 251L110 255L113 251M315 277L315 284L316 284L315 277z"/>
</svg>
